<svg xmlns="http://www.w3.org/2000/svg" viewBox="0 0 187 280.2"><path d="M169.6,410.1c.3-1.4.6-2.7,1-4h1v-3h1c1-3.2-.9-7.9-2-9-1.7-6.4-7.4-6.8-12-10l-3-4h-2l-5-6h-2l-6-7h-2l-18-19-20-19-8-9h-2v-1l-3-2-3-4-9-8c-2.1-2.1-3.4-4.5-6-6v-1c7.8,2.8,22.3,1,32,1h94c3.2,0,7.3.5,9-1h3a12.4,12.4,0,0,1,1-2l3-1v-2a12.4,12.4,0,0,1,2-1v-3h1c0-5.7-.6-9.8-3-13-1.1-1.4-2.5-.7-4-3-32.5-3-69.9-1.1-104-1-1.1-5.3-4.6-8.1-10-9,.3-1,.6-2,1-3l3-2v-2l3-2v-2l3-2v-2l2-1v-2l3-2v-2l3-2v-2l2-1c.3-1,.6-2,1-3h1v-2l2-1v-2l3-2v-2l2-1v-2l2-1v-2l2-1v-2l2-1v-2h1c.3-1,.6-2,1-3l2-1v-2l3-2v-2l2-1c.3-1,.6-2,1-3h1c.3-1.4.6-2.7,1-4l2-1v-2l2-1v-2l2-1v-2l2-1c.3-1.4.6-2.7,1-4l2-1c.6-2,1.3-4,2-6l2-1v-2l2-1c.3-1.4.6-2.7,1-4l2-1c.3-1.4.6-2.7,1-4l2-1c.3-2,.6-4,1-6h1c-.4-3-.7-6-1-9-3.2-2.7-3.9-6-9-7-2.9-2.8-6.8-1.3-11-1-2.7,2.3-5.4,4.6-8,7v2l-2,2v2h-1v2h-1c-.4,1-.7,2-1,3l-2,1c-.4,1.3-.7,2.6-1,4l-2,1c-.4,1.3-.7,2.6-1,4l-2,1c-.4,1.3-.7,2.6-1,4l-2,1v2l-2,1v2l-2,1c-.4,1.3-.7,2.6-1,4l-3,2c-.4,1.3-.7,2.6-1,4l-3,2v2l-2,1c-.4,1-.7,2-1,3h-1v2l-2,1v2l-2,1v2l-2,1v2h-1c-.4,1-.7,2-1,3l-2,1v2l-3,2v2l-2,1v2l-3,2v2l-2,1c-.4,1-.7,2-1,3h-1v2l-3,2v2l-2,1v2l-4,3v2l-3,2v2l-3,2v2c-1.7,1.3-3.4,2.6-5,4v2l-12,11h-4v1h-3a12.4,12.4,0,0,0-1,2h-2l-8,9-3,2c-1.2,1.6-.1,2.2-2,4-.2,18.9,5.1,25.1,16,33l3,4h2l3,4h2l16,17,4,3,1,2h2l5,6,15,14c9.2,9.2,17.3,19.2,28,27l2,3h1l1,2h2l5,6h2l3,4h2l1,2,4,1,1,2,4,1v1C158.8,417.4,167.9,412.6,169.6,410.1Z" transform="translate(-27.6 -135.4)" style="fill-rule:evenodd"/></svg>