<svg xmlns="http://www.w3.org/2000/svg" viewBox="0 0 1648.5 378"><path d="M1163,128h1c.3,1.3.7,2.7,1,4h1v2h1c.3,1.7.7,3.3,1,5l2,1,3,9h3c1.5,3.5,2.8,7,7,8,1.1,1.1,0,.4,2,1,1.1-1.1,0-.4,2-1-1-2.6-.2-5.2-1-8h-1v-4h-1v-4c-1.4-3.9-4.2-7.2-5-12h-2c-.3-1.3-.7-2.7-1-4h-1v-4h-1v-4h-1c-.3-1.7-.7-3.3-1-5h-1c-1.8-2.8-4.2-3.1-9-3-.7,3.3-1.3,6.7-2,10h1C1161.7,122,1162.3,125,1163,128Z" transform="translate(-205.5 -109)" style="fill-rule:evenodd"/><path d="M1801,119c-.3-1-.7-2-1-3-2.4-.6-1.9-.3-3-2a22,22,0,0,0-7,4c-.3.7-.7,1.3-1,2l-5,1-5,6-2,1v2l-6,5v2l-6,5v2l-2,1v2l-3,2c-.3,2-.7,4-1,6l-3,2c-.7,3.3-1.3,6.7-2,10l-2,1v3c-.6,1.3-.5-.3-1,1a13.1,13.1,0,0,1,3,4h4c.3-1,.7-2,1-3l3-2v-2h1v-3c1.6-2.4,3.8.1,5-5,5.3-1.3,6.9-6.5,10-10l14-13v-3l2-1v-2l4-3v-4l2-1v-2h1l-1-1v-2Z" transform="translate(-205.5 -109)" style="fill-rule:evenodd"/><path d="M1849,148h-3c-.8,6.8-4.3,5.8-6,10s-.7,6-1,9h-1v3h-1v4h-1v4h-1v8h-1v5h-1v14h-1v17h1c-.3,1-.7,2-1,3h1v5l2,1c-.3.7-.7,1.3-1,2h1c1.3.6-.4,1.2,1,1v-1c5.3-.3,5.1-1.4,7-5h1v-3h1v-2h1c-.3-3.3-.7-6.7-1-10V200l-2-1v-1l2-1v-4h1v-9h1v-5h1v-1c-.3-1-.7-2-1-3l2-1c.3-2.7.7-5.3,1-8h1c.3-1.3.7-2.7,1-4h1v-7h1C1853.4,150.1,1851,151,1849,148Z" transform="translate(-205.5 -109)" style="fill-rule:evenodd"/><path d="M298,265h-1c-2.7-3.8-2.7-3-7-5v-1h-4v-1h-4l-1-2-16-4v-2l-5-1v-1l-5,1v-2c-4.1-.6-4.4-2.2-7-4v-1h-4c-.5-3.8-1.2-2.8-2-6h-2v-2h2c-2.3-2.6.4-2.6,0-4s-.8-.2-1-2l8-7h2c1-3.8,2.2-3.1,5-5l1-2h2v-1l6-2v-1l26-3c.3-2,.7-4,1-6,0,0-1.4-.7-1-3,0,0,1.3-.2,1-2h-1v-3c-7.6-3.3-18.8-3.8-27-1h-4l-2,3h-3v1h-2v1h-2l-2,3-6,2-1,2h-2l-4,5h-2v1h-2l-1,2h-2v1h-2v1c-2.8,1.7-1.8-.9-3,3l-4,1c-.3-2.1-1.1-9.9,0-14h1V194h1c.3-4.7.7-9.3,1-14h1c1.7-4.6-.1-6.4,4-9,.1-5.6-.2-6.7-2-10a21.9,21.9,0,0,1-4-1v1h-2v2c-2,.6-.9-.1-2,1-2.5,2.8-.6,7.8-2,12h-1v4h-1v6h-1v1h1c-.3,2-.7,4-1,6h-1v7h-1v16c-2.6,8.8-.4,16.3-3,25v16h-1v6h1c-.3,3.3-.7,6.7-1,10h-1v1h1c0,1.4-.7-.4-1,1s.7,3.3,1,5-2.4,14.5-1,19h1v4h1v5c.3.7,1.3.1,2,3,3.3.7,3.8,1.9,8,2-.1-6.7-2.3-13.8-3-17,.3-13,.7-26,1-39h4l1,2h2c1.1,4.4,3.8,3.9,7,6l1,2h2v1h2l2,3,6,2v1h2v1l6,2v1h3v1h3v1h3v1h7v1h2v1l8,1v1h3v1l8,1v-1h2v-1h4l4-5h1l-1-2h1v-1h-1Zm-63-44s-.5-1.7-2-1v1h-3v-1l10-2v2Zm23,32c2,.6.9-.1,2,1C258,253.4,259.1,254.1,258,253Zm8,2c-2.4-.6-1.9-.3-3-2l3,1Z" transform="translate(-205.5 -109)" style="fill-rule:evenodd"/><path d="M430,259h-1v-3h-1l-1-4h-1v-4h-1v-5h-1v-5h-1c-.6-2.4,1.1-2.7,1-4h-1v-3h-1v-4l-2-1c-.3-4.3-.7-8.7-1-13h-1l-1-4h-1c-.2-1.2,1.7-1.7,1-4h-1v-3h-1v-2h-1c-.3-2-.7-4-1-6a1.5,1.5,0,0,0,1-2h-1l-1-4-2-1v-4l-2-1v-3l-2-1c-.3-3-.7-6-1-9h-1v-2l-2-1v-2l-3-1-2-3h-6v1h-2v1l-4,3c-.3,1.7-.7,3.3-1,5h-1v2l-6,4v3l-3,2v2l-3,2v2l-4,3v2l-4,3v2h-1c-1.8,2.8,1,1.8-3,3l-1,3h-1v2l-2,1v2l-4,3v2l-2,2v2h-1v2l-2,1v2l-2,1v2l-2,1v3l-2,1-2,6h-1v2l-2,1c-.3,1.7-.7,3.3-1,5h-1v3l-2,1c-.3,2-.7,4-1,6h-1v2h-1v5h-1v4h-1v8h-1v11a2.6,2.6,0,0,0-1,3h1c.3,3.7.7,7.3,1,11l5,11c2,.6.9-.1,2,1,5.2-.1,3.9-.4,7-2,.4-2.1,2-4.9,1-8h-1v-2h-1c-.3-3.7-.7-7.3-1-11h1v-2h1v-6h1c1-3.3,0-7.7,2-10s4.3-.8,8-2v-1h3v-1h10v-1h4v-1h4v-1h3v-1h6v-1l4-1v-1h4v-1h6v-1h2v-1c4.2-1.7,4.4.7,7-3h5v1c2,2.2,1,4.8,2,8h1v7h1v6h1c-.3,9.3-.1,17.2,7,19,1.1,1.1,0,.4,2,1a24.4,24.4,0,0,1,5-4c.6-3.1,2.3-5.7,3-8V268h-1Zm-26-29c-2.9,2.7-7.5.5-12,2v1h-3v1h-8v1h-4v1h-7c-4.3,1.3-3.3,1.8-8,1l1,3h-2v-2l-3-1c.3-2,.7-4,1-6h2c.9-3.4,3.1-4.6,5-7h1v-3l3-2,2-6,3-2v-2l8-7v-4l7-6h4v1h1c.3,2.3.7,4.7,1,7h1v5h1l1,4h1v5h1v4h1c.7,3.3,1.3,6.7,2,10h1C404.4,230,405.1,228.9,404,230Zm4-5h2l1,3A6.7,6.7,0,0,1,408,225Zm4,9-3,1v-2h3Z" transform="translate(-205.5 -109)" style="fill-rule:evenodd"/><path d="M584,263v-2h-1c-.3-2-.7-4-1-6l-2-1v-6h-1c-.3-5-.7-10-1-15h-1V209h-1a1.6,1.6,0,0,1,1-2c.1-.4-1-2.1-1-4s.7-2,1-3h-1v-2h-1v-7h1c1.5-5.6-1-21.8-3-24-.2-4.3-.6-3.4-2-6h-4v-1h-8l-2,3h-2l-4,5-8,7v2l-5,4v2l-7,6v3l-4,2v2l-2,1-10,11h-2c-1.2,4.3-3.1,3.4-5,6v2l-2,1-4,6c-4.8-.6-4-1.9-6-5l-2-1v-4h-1v-4h-1l-1-4h-1c-.3-3.7-.7-7.3-1-11h-1l-3-4-9-1v2h-2l-1,4h-1v3l-4,3c-.3,2.3-.7,4.7-1,7l-2,1v5l-2,1v4h-1v4h-1v8h-1v8h-1v11h-1v12h-1v1h1v16h1v3h1v4l2,1v2c.4.6,1.3.8,2,2,5.1-.1,5.7-1.5,9-3,.4-2.4,1.4-6.8,0-10l-2-1V263h1v-3h1v-8h-1c.3-1.7.7-3.3,1-5a7.9,7.9,0,0,0,3-2h2v-1h-3c.1-3.2.1-4.8,1-7h1c1.2-3.5.1-10.1,0-13h3l1,3,2,1v5h1v3h1v3l3,2v2h1v2l2,2v2l3,2v2h1l2,3c8.9.2,7.7.4,12-4l3-2c.3-1.7.7-3.3,1-5l4-3c.3-1.7.7-3.3,1-5h1c.3-1,.7-2,1-3h2c.3-1,.7-2,1-3l6-5v-2h2c.3-1.7.7-3.3,1-5l7-4v-2l2-1c.3-1.7.7-3.3,1-5h1a7.6,7.6,0,0,0,2-4h2c.7-2.7,1.6-3.1,3-5h1v-3h1l5-6h4c.3,3.3.7,6.7,1,10a2.9,2.9,0,0,0-1,3h1c-.3,3.7-.7,7.3-1,11h1v1h-1v6h1v14h1v11h1v4h1c.3,3.3.7,6.7,1,10h1v5h1v5h1v3h1v3l5,7c7-.1,4.2-1.5,8-4,.7-5,1.3-10,2-15Z" transform="translate(-205.5 -109)" style="fill-rule:evenodd"/><path d="M1106,282c0-5.2,1.4-8.1,0-12h-1v-3l-3-2c.3-1.7.7-3.3,1-5h-1v-3h-1c-.8-2.5,1.1-5.3,1-6h-1c-.3-3.7-.7-7.3-1-11l2-1c-.3-.7-.7-1.3-1-2h1v-8h-1v-2l-2-1V212h1c.3-1.7-.9-1.7-1-2V195c-1.7-10-3.3-20-5-30-2.8-1.3-3.8-3.2-7-4-1.1-1.1,0-.4-2-1v1l-3,1v3h-1v1h-2a8,8,0,0,1-2,4h-1c-.3,1.3-.7,2.7-1,4l-2,1v3l-2,1v3l-2,1v1l-2,1v2h-1a8,8,0,0,0-2,4h-2c-1.3,4-2.7,8-4,12h-1v2l-2,1v2l-2,1c-.3,2-.7,4-1,6s-3.5,3.7-4,8h-2c-.4,12.1-6.1,21-9,31-1.8,6.1,2.4,20-1,24,.3,5.7,2.9,6.4,5,10,3.9-.4,4.4-1.6,7-3,.3-3.3.7-6.7,1-10-.4-1.5-1.9-6-1-9h1v-3c0-2.1-1.1-3.3-1-4h1v-6h1c.9-2.2,1-3.9,1-7h1v-1h4v-1h3v-1h24v-1h2v-1l3-1c.3,1,.7,2,1,3h1c.8,2.4-.1,13,1,18l3,16,2,1v2h1v2h1c1.5,3-1,1.9,2,4v1h1A13.3,13.3,0,0,1,1106,282Zm-62-13h-2v-2h2Zm45-57v9l-14-1-6,1v-1h-2v-1l-3-1c.8-6.2,4.4-8.9,7-13v-2h1v-2h1v-2h1v-2l2-2v-2h1a7.6,7.6,0,0,0,2-4c2.9-.7,3.3-1.1,4-4h4c.3,6.7.7,13.3,1,20h1v5h1C1090.3,211.7,1089.1,211.8,1089,212Z" transform="translate(-205.5 -109)" style="fill-rule:evenodd"/><path d="M1619,264h1c2.6-3-1.2-3.4,4-5v-6h1v-5c.1-.3,1.5-.3,1-2l-2-1a2.7,2.7,0,0,1,1-3v-1h-1v-5h-2c-.2-5-2.7-7.2-6-9v-2c-6.2-.3-5.2-1-9-3h-2v-1h-3c-.3-.7-.7-1.3-1-2h-4v-1h-3v-1h-5v-1l-1,1c-3.4,0-6.9-3.8-10-1-2,.6-.9-.1-2,1-2.9,2.9-.4,5.3-2,9l-2,1v3h-1v2c.4.7,6.8,3.7,9,3v-1l4-1v-1c6-2.1,22.2,3.3,25,5,.3.7.7,1.3,1,2h2v1l3,1c.6,2-.1.9,1,2v3l-2,1v2h-1l-3,4h-2l-4,5-4,1c-.3.7-.7,1.3-1,2l-6,1v1h-3v1h-3v1h-3v1l-10,2v1c-8.2,2.7-22.4-2.7-25-6h-1v-4l-2-1v-5h-1v-3h-1c-.2-1.4.7.4,1-1v-7h-1v-1h1v-4h1v-5h1v-2h1v-3h1v-3h1v-2h1c.7-2,1.3-4,2-6l2-1v-2h1v-2l6-5v-2l7-6c.3-1,.7-2,1-3l2-1,3-4h2c.3-.7.7-1.3,1-2h2l2-3,4-1c.3-.7.7-1.3,1-2,8.1-5,26.9-3,31,4l8-1v-1h1V172l-2-1v-2h-1l-2-3h-2v-1h-2c-.3-.7-.7-1.3-1-2h-2v-1h-3v-1h-9c-.3-.1-.3-1.3-2-1v1h-11v1h-4v1h-2v1h-3l-2,3h-2v1c-2.7,1.7-1.9-1-3,3-4.8.5-10.2,6.5-11,11-6.6,1.4-3.2,2.4-6,6l-4,2v2l-3,2v2l-3,2c-.3,1.3-.7,2.7-1,4l-2,1c-.3,1.3-.7,2.7-1,4h-1c-.3,1.3-.7,2.7-1,4h-1c-1.3,6.3-2.7,12.7-4,19h-1v4h-1v4h-1v11c-.1.3-1.3.3-1,2h1v15c2.7,9.2,6.6,24.7,16,27,1.1.9,13,2.8,16,2v-1h7c.3-.7.7-1.3,1-2h5v-1l4-1v-1h3v-1l4-1v-1l4-1c.3-.7.7-1.3,1-2h2c.3-.7.7-1.3,1-2h2c.3-.7.7-1.3,1-2h2l3-4h2l4-5h2l2-3h2Z" transform="translate(-205.5 -109)" style="fill-rule:evenodd"/><path d="M1010,276v-3l-2-1v-2l-2-1v-2l-2-1v-2l-3-2v-2l-3-2c-.3-1.3-.7-2.7-1-4l-8-7v-2l-3-2c-2.6-2.9-.6-2.9-5-5,.4-9.4,1.8-4.3,6-8l3-5,3-1,2-2v-2l4-3c.3-1.3.7-2.7,1-4h1c.7-2,1.3-4,2-6h1v-3h1v-4h1c.3-4.3.7-8.7,1-13,.5-1.6,2.3-8,1-11l-2-1v-4c-.4-.8-1.2,0-2-3l-6-2v-1H986v1H974v1h-4v1h-6c-.3.7-.7,1.3-1,2l-9,1v-1c-.9-.4-2.2-1.8-4-1v1c-3.9,1.1-1.3.3-3,3h-1v2l-2,1v4h-1c-.3,7.7-.7,15.3-1,23h-1v10h-1v13h-1v10h-1v11h-1v3h-1c.3,2.3.7,4.7,1,7h-1v2h-1v5h-1c.3,1,.7,2,1,3v8h-1c-1,3.4,1.1,8.1,1,10h-1c-1.9,9.5.9,22,6,25,1.1,1.1,0,.4,2,1,1.2-1.3,1.8-1.6,4-2-.7-1.6-3.5-7.7-3-10h1c.3-1,.7-2,1-3h-1v-2h-1V281c.7-10.7,1.3-21.3,2-32,1.8-.3,7.1-1.3,10,0,.3.7.7,1.3,1,2h4l2,3h2l2,3h2l3,4h2l3,4h2l2,3c2.2,1.5,4.1,2.1,6,4l10,11h3v1c2.1,1.6,3,3.2,6,4v1h4c.3-4.4,3.7-7.7,2-13Zm-35-60v1l-3,1c-.3.7-.7,1.3-1,2h-5c-.3.7-.7,1.3-1,2h-2v1h-6c-3,1-3,1.9-8,2-.1-8.2.7-24.5,3-27,1.3-4.5,1.6-2.3,5-4v-1h3c.3-.7.7-1.3,1-2l12-1v-1h2v-1h8a29.1,29.1,0,0,1,14-1c-.4,4.9-2.2,6.8-4,10v2l-2,1c-.3,1.3-.7,2.7-1,4l-3,2v2l-3,2v2l-3,2v1Z" transform="translate(-205.5 -109)" style="fill-rule:evenodd"/><path d="M795,268h1v-1h-1v-2h1a38.8,38.8,0,0,0-3-7c-.3-1-.7-2-1-3h-3v-1l-4-1v-1h-3v-1h-5v-1h-2v-1h-5v-1h-3v-1h-2v-1h-2c-.3-.7-.7-1.3-1-2h-4c-.3-.7-.7-1.3-1-2h-2c-1.7-1.2-2.5-3.7-5-5v-4h2l5-7h2l4-5c1.9-1.4,1.4.4,3-2h2v-2l3-1v-1h2v-1h4v-1c3.8-1.2,9.1,0,12-1,.6-2-.1-.9,1-2v-8l-2-1c-.3-1-.7-2-1-3l-4-1v-1c-1.3-.9-1.8-.8-4-1v-1c-1-.4-10.3,3.4-11,4l-2,3h-2c-.3.7-.7,1.3-1,2h-2c-.3.7-.7,1.3-1,2h-2c-.3.7-.7,1.3-1,2h-3l-5,7-4,1-2,3-4,1-2,3h-2l-2,3h-3c-.3-3.3-.7-6.7-1-10,0,0,.8-.1,1-2v-8h1c-.3-2-.7-4-1-6h1c2-9-1.9-14.2,4-20v-5l-7-6h-4v-1h-1c-.3,7-.7,14-1,21,0,2.7,1.1,8.2,1,9h-1c-.7,3.3,1.3,5,1,7h-1v14h-1v4h1v6h-1v4h-1v11h1c-.3,2-.7,4-1,6h-1v11c-.1.3-1.3.3-1,2h1v5c.1.3,1.5.3,1,2l-2,1c-.3,4.7-.7,9.3-1,14-3.1,10.5-3.1,23.4-3,37,1.3,1.1,1.8,2.8,3,4s2,.7,3,2c3.4-.4,3.2,0,4-3h1v-2h-1V311h-1v-5h1v-3h1c-.3-4.3-.7-8.7-1-13h1v-4h1c.3-9,.7-18,1-27,4.2.1,6.7.1,9,2,.3.7.7,1.3,1,2l4,1c.3.7.7,1.3,1,2h2v1h3c.3.7.7,1.3,1,2h3v1h4v1h3v1h3v1h3v1h2v1c3.9,1.4,8.1-.5,11,2h8c.3-.7.7-1.3,1-2h3c.3-.7.7-1.3,1-2C792.8,271.2,794.1,271.8,795,268Zm-19-1c-2-.6-.9.1-2-1h-1v-1h3Z" transform="translate(-205.5 -109)" style="fill-rule:evenodd"/><path d="M1317,176c-4-1.2-2.1-2-5-4v-1c-1.7.4-4.9,1.7-8,1v-1h-1v1h-9c-.3.7-.7,1.3-1,2l-3,1v1l-3-1v-1l-13,1h-11v1h-3v1l-4-1v-1l-9,1v1l-9-2v1c-5.4-.2-14.8-1.3-17,2h-1c.7,1.3.6,5.2-1,7,.1,7.4,2.5,8.4,5,13h8v-1h1v1h4v1h8v-1h5v1c1.9.3,2-1,2-1l7,1c0,11.3-.2,27.3,1,34,.5,2.6-1,3-1,3v18l7,16c3.4.4,4.1.4,8,1v-1h1c.3-4.3.7-8.7,1-13l-2-1v-4l-3-2v-6h-1v-4h-1a2.7,2.7,0,0,1,1-3v-4h-1v-3h1l-1-1v-1h1V216h-1v-4h1v-3h-1c.3-2,.7-4,1-6h1v-6h1v-1h4v-1h5v-1h4v-1l5-1v-2c2,.1,3.4,1.1,4,1v-1h2v-1h4v-1h3v-1h2v-1l9-1v-1l4-1A40.5,40.5,0,0,0,1317,176Z" transform="translate(-205.5 -109)" style="fill-rule:evenodd"/><path d="M686,254v-2h-1c-.3-2-.7-4-1-6l-3-2v-2h-1v-5h-1v-5h-1v-2h-1v-3l-2-1c-.5-1.7,1-1.8,1-2-.3-3.3-.7-6.7-1-10h-1c-.3-1.3-.7-2.7-1-4h-1c-.3-3-.7-6-1-9h-1v-2h-1v-3h-1v-3l-3-2v-5l-2-1c-.3-1.3-.7-2.7-1-4s-7.9-5.3-11-6c-1.1-1.1,0-.4-2-1-1.3,2-3.4,2.4-5,4v1l-2,1v3l-2,1a14.8,14.8,0,0,0-4,9c-2.5.7-1.6.5-3,2h-1v2l-3,2v3l-2,1v3h-1v2h-1v2l-3,2v2h-1v2h-1v3l-2,1v4h-1c-.3,1.3-.7,2.7-1,4h-1v4l-2,1c-.3,1.3-.7,2.7-1,4h-1v7h-1v7h-1v3h-1v8h-1v12h1v1h-1c-.3,2.3,1.9,8,3,9s2,1.7,3,3c3.9.1,6.3,0,8-2s2.1-5.5,1-9h-1c.3-.7.7-1.3,1-2h-1c.3-2.7.7-5.3,1-8,0-.2-1.3-.3-1-2h1v-4l2-1c.7-3,1.3-6,2-9h1l3-4c8.8-.3,15.1-3,22-5h9v-1c2-.6,3.3-.4,5-1a9,9,0,0,0,2,2v4h1v3h1v3h1v3h1v3h1v3h1v2h1v4h1c1.4,1.9,1.3,2.2,4,3v1a7.1,7.1,0,0,1,4-1c.8-3.4,5.1-9,3-15Zm-56-32c-2.4-.6-1.9-.3-3-2l3,1Zm32-1h-1v1h-1v-1H649c-.3.1-.3,1.3-2,1v-1l-8-1c.1-3.6.6-4.1,2-6h1c-.3-.7-.7-1.3-1-2l3-2v-2l7-6v-1h2v-1l4,1c.3,1.3.7,2.7,1,4h1v4h1c.3,2.3.7,4.7,1,7h1Zm4-5c2,.6.9-.1,2,1C666,216.4,667.1,217.1,666,216Z" transform="translate(-205.5 -109)" style="fill-rule:evenodd"/><path d="M1722,233a1.6,1.6,0,0,1-1-2h1V221h-1c.3-1.3.7-2.7,1-4h-1v-5h-1c.3-1,.7-2,1-3l-2-1c-.3-2.3-.7-4.7-1-7h-1v-2l-2-1v-5h-1c-.3-1.3-.7-2.7-1-4h-1v-3h-1l-4-5c-1.9-.4-2-1-2-1h-6v-1h-2v-1c-1.5-.9-2.5-.9-5-1-.3,1.3-.7,2.7-1,4l-8,2c-.3.7-.7,1.3-1,2h-6c-.3.7-.7,1.3-1,2h-3c-.3.7-.7,1.3-1,2l-3,1v1l-3,1a8,8,0,0,1-2,4h-1v2h-1v3h-1c-.3,1.7-.7,3.3-1,5h-1v2h-1v3l-2,1v5h-1v4h-1c-.3,9-.7,18-1,27h1v2h1v3h1v5h1v1c-.3.6-1.6.1-1,2h1v2h1v3l2,1v2c1.7,2.4,5.1,2.9,7,6h14v-1h2v-1h3v-1h3v-1h3c.3-.7.7-1.3,1-2h5c.3-.7.7-1.3,1-2,4.8-2.9,10.4-3.9,12-10,6.1-1.6,6.8-8.4,9-14h1v-4l2-1c-.3-1-.7-2-1-3S1722.3,234.7,1722,233Zm-8-6h-1c-.3,2.3-.7,4.7-1,7h-1v2l-3,2v2l-2,1-3,4h-2c-.3.7-.7,1.3-1,2h-2c-.3.7-.7,1.3-1,2s-14,4-17,3v-1h-2v-1l-5-1v-1l-5-4v-2c-2-.6-.9.1-2-1h-1c.3-2,.7-4,1-6h-1V220h1v-2h1c.1-2.5,0-3.6,1-5h1c.3-1,.7-2,1-3h2l2-3,4-1c.3-.7.7-1.3,1-2l4-1v-1l6-2v-1h4v-1c.3-.1,6.8.9,9,1v-3h3v1h1v4l2,1v2h1v2l2,1v4l2,1v10h1Z" transform="translate(-205.5 -109)" style="fill-rule:evenodd"/><path d="M908,182h-4v-1h-1v1h-2c-.6,2,.1.9-1,2,1.1,1.1,0,.4,2,1-1.2,3.8-1.1,1.7-3,4h-1c-.3,4.3-.7,8.7-1,13h-1v2h-1v1h1c0,2.2-1,2-1,2v5h-1v4h-1v4h-1v4h-1v2h-1v4h-1c-.3,1.3-.7,2.7-1,4h-1v3h-1v3h-1c-.7,2-1.3,4-2,6h-1c-.3,1.3-.7,2.7-1,4l-2,1v2h-1a7.3,7.3,0,0,0-2,4,8,8,0,0,0-4,2v1h-2c-.3.7-.7,1.3-1,2-3.5,1.7-11.1,0-13-2-5.4-1.4-3.8-3.7-6-8h-1v-2h-1v-5h-1v-7h-1c-.3-5-.7-10-1-15h-1v-1h1V204h1v-2h1c1-3-.4-8.4-1-10s.7-1.3,1-2v-1h-1c-.3-1.3-.7-2.7-1-4l-10-1c-.3,7.7-.7,15.3-1,23,.2,2.7,2.1,7,1,11h-1v17h1c-.3,1.3-.7,2.7-1,4h1v5h1v7h1v4h1v4h1v4h1v3h1v3h1c.7,2,1.3,4,2,6h1c.7,2,1.3,4,2,6l7,6h2v1l6,1v1h7c.3-.7.7-1.3,1-2h2l8-6v-4l2-1v-1h2c1.5-1.1,2.2-5.5,3-6h2c.7-3,1.3-6,2-9h2c1.7-7,3.3-14,5-21l2-1v-6h1v-2h1v-9h1v-2h1v-4h1v-3h1v-2h1v-4h1v-7l3-2c.3-2,.7-4,1-6l-2-1C910,186.2,909.4,184.7,908,182Z" transform="translate(-205.5 -109)" style="fill-rule:evenodd"/><path d="M1400,221h-1v-3l-3-2v-3l-2-1v-3h-1c-1.4-1.9-2.2-2.3-3-5-2.8-.8-2.5-1.2-4-3h-1v-3l-3-2c-.3-1-.7-2-1-3l-6-2v-1l-3-1v-1l-3,1-11-2-2-3c-5.7.3-10.3,3.4-14,6l-3,4h-2l-2,3-6,5v2h-1c-.7,2-1.3,4-2,6h-1v4h-1c-.3,1.3-.7,2.7-1,4h-1c.3,1,.7,2,1,3h-1v3h-1v4h-1v7h-1v7h-1c-.7,2.6,1,5.4,1,6h-1v10h-1c-.3,1.7.9,1.8,1,2v13h1c-.3,1.3-.7,2.7-1,4h1v2h1c.7,3.3,1.3,6.7,2,10l5,7,6,2v1l17-1v-1h3v-1h2v-1h3c.3-.7.7-1.3,1-2h3c.3-.7.7-1.3,1-2,3.7-2.3,5.6-.7,7-6,2-.6.9.1,2-1,2.7-.8,2.3-.2,3-3,4.5-1.2,3.6-3.8,8-5v-3h2c.3-1,.7-2,1-3l5-4c.3-1.3.7-2.7,1-4l2-1v-2h1c.3-1.3.7-2.7,1-4h1v-4l2-1v-4h1V233c.3-1.3.7-2.7,1-4h-1Zm-11,22h-1v2l-3,2v3l-2,1c-1.9,2.1-3.3,3.7-4,7-4,1.1-4.9,4-9,5-1.4,4.8-.8,1.2-4,3-.3.7-.7,1.3-1,2h-2v1h-2v1h-3v1h-2v1l-5,1v1h-15c-.3-.7-.7-1.3-1-2a22.2,22.2,0,0,1-5-6v-2h-1c.3-2,.7-4,1-6h-1c-.3-2,1-2,1-2v-9h1V237h1v-4h1v-5h1c1-2.7.6-5.8,2-8l3-2v-2l2-1c2.3-2.5,7.1-6.6,8-10h2c.9-.4.1-2.6,3-2v1h2v1c2.3,1,1.1-1,3,1,3.4-.4,3.7-.7,5-3,8.6.2,8.8,4.9,14,8v2h2c.3.7.7,1.3,1,2h1v2l4,3c.3,1.7.7,3.3,1,5l2,1c.3,1.7.7,3.3,1,5h1C1390.9,236,1390.8,239.6,1389,243Z" transform="translate(-205.5 -109)" style="fill-rule:evenodd"/><path d="M1498,237c-.7-2-1.3-4-2-6h-2v-2h-5c-.3-.7-.7-1.3-1-2l-7-1v-1l-14-1v1h-14v1c-3.2,1-6.9,0-9,2h-1c.3,1,.7,2,1,3h-1c-.3,1.7-.7,3.3-1,5h-1c0,10.1,2.6,10.2,6,16l8-1v-1h2v-1h3c.3-.7.7-1.3,1-2h1v1h1v-1h8v-1h2v-1h6c8.2-2.6,12.6-1.2,22-1C1501.2,239.6,1501.6,237.9,1498,237Z" transform="translate(-205.5 -109)" style="fill-rule:evenodd"/><path d="M1843,268c-.7-5.7-4.5-4.4-7-8h-2c-.3,1-.7,2-1,3h-1v3h-1v3h-1v2h-1c.3,2,.7,4,1,6h1c.3,3.3.7,6.7,1,10l3,1v-4h2l5-9h1c1.3-2.2-.8-6-1-7Z" transform="translate(-205.5 -109)" style="fill-rule:evenodd"/><path d="M1217,413h-9c-5,1.5-9.3,3.9-16,4-.3-2.7-.7-5.3-1-8h-1c-1.3-1.9-1.6-1.9-2-5l6-1c.3-.7.7-1.3,1-2h7v-1c5.2-.1,3.9-.4,7-2-.7-3.1-1.7-4.5-2-8-1.1-.9-.2.1-1-1l-5,1v-1h-8v1h-1v-1l-5,1v-1h-1a11.5,11.5,0,0,0,1-7h-1c0-1.4.8.4,1-1,.6-4-.2-7.8,2-10,0-3.6-.2-6.8-1-9-2-.6-.9.1-2-1h-1v3h-1v2h-1v4h-1c-2.1,6.9,2.1,15.6-2,20-.3.7-.7,1.3-1,2h-3v-1c-1.7-.3-1.7.9-2,1h-14c-.3.7-.7,1.3-1,2h-2c-.7,3.3-1.3,6.7-2,10h-1c-.3,1.3-.7,2.7-1,4h-1c-.3,2-.7,4-1,6h-1c-.7,3.3-1.3,6.7-2,10h-1v2h-1c-.7,4-1.3,8-2,12h-1v2h-1v4l-2,1c-.3,2-.7,4-1,6l-3,2v2l-6,5h-2v4h-1c.6,2.4,1.1,2.2,2,4,4.9-.1,5.7-1.2,9-2a8,8,0,0,1,2-4h1v-2h1c.7-2,1.3-4,2-6h1c.3-2,.7-4,1-6h1v-3h1v-3h1v-3h1v-5h1c.7-3.7,1.3-7.3,2-11h1v-4h1v-2h1v-3h1c-.3-1.3-.7-2.7-1-4h-1c.3-1.3.7-2.7,1-4h2c.3.7.7,1.3,1,2,3.8,1.6,22.8-1.9,24-3a9.3,9.3,0,0,1,4,1c-.3,1.7-.7,3.3-1,5h-1v6l-2,1v4h-1v3h-1v1h1v6h1a1.8,1.8,0,0,1-1,2v1h1v4c-4.5,1.2-4.4,4.1-7,7l-4,3v2h-1c-1.4,2.2.4,1.4-2,3-.1,3.2-.1,4.7-1,7h-1c.3.7.7,1.3,1,2h-1c1.3,4,2.7,8,4,12l3,1v1c4.4-.2,14.3-2.2,17-4l3-4,3-1v-2l4-3c.3-1,.7-2,1-3h1c.3-4,.7-8,1-12h-1c-1.2-2.7-1.9-4.6-3-7-3.5-.8-4.3-2-9-2a40.5,40.5,0,0,0-1-7c11.2-1.2,15.7-6.1,28-8v-3h1c-.3-2.3-.7-4.7-1-7S1217.8,414.1,1217,413Zm-20,39c-.5,5.1-2.8,4.7-6,7l-2,3h-3v1h-2v1l-6-1c-.3-2-.7-4-1-6h1c.9-3.2,2.6-3.5,4-6h7v-1C1193.5,450,1194.5,450.7,1197,452Z" transform="translate(-205.5 -109)" style="fill-rule:evenodd"/><path d="M876,452h-1c1-3.8,3.7-6.5,6-9l2-1c.7-4,1.3-8,2-12-3.2-.4-2.9-.9-5-2l-2,3h-2v1h-4l-5,6v2h-1v2l-2,1v3h-1c-1.1,1.1,0,.4-2,1-1.3-2.8-2.7-5-3-9l-3-1v-1h-2v-1l-15-1c-.9-1.1.1-.2-1-1,.5-3.1.7-3.1,2-5h1v-3c2.6-6.1,4.5-10.2,3-18-2.2-.4-4.8-1.9-8-1v1c-5.5,1.6-7.5-.3-13,0-1.4.1.4,1-1,1v-1c-2-.6-.9.1-2-1l12-4c5.1-1.6,18.4.5,21,2l9,10c.3,4,.7,8,1,12h1v5c.3.6,1.3,0,2,3l3-1c.3-2,.7-4,1-6h1c.2-.9-1.8-7.3-2-8-.3-4-.7-8-1-12l-2-1v-3l-2-1c-.3-1.3-.7-2.7-1-4l-4-3v-1h-2c-.3-.7-.7-1.3-1-2h-2v-1h-3c-.3-.7-.7-1.3-1-2h-3v-1H835c-.9-1.1.1-.2-1-1-.1-3.6-.8-10.1,1-12,.2-6.5-1-8.8-5-11-2.7,7.1-1.1,15.1-1,25-2.1.4-1.9,1-2,1h-5c-.3.7-.7,1.3-1,2h-7c-3.1,1-6.4,3.3-10,4a9.3,9.3,0,0,1-1-4h-4c-.3,5.8-2.6,10.2-4,15s.7,10.9-2,14c-.1,7-1,16.7,1,22h4v-5s1.3,0,1-2h-1v-7h1c.3-5.3.7-10.7,1-16,.6-.3,3.7-.8,4-1l2-3h2v-1l9-1c-.7,3-1.3,6-2,9l2,1v3h1v2h1c.3,1,.7,2,1,3h7c-1.3,4-.4,1.2-3,3-.3.7-.7,1.3-1,2h-2v1h-2c-.3.7-.7,1.3-1,2h-2v1c-1.3.7-4.3.8-5,2-.3,3.3-.7,6.7-1,10h1c.6,2.4,1.1,2.2,2,4l17-1c-2.6,9.6-11.1,10-11,23,7.2-1.6,3-3.9,6-6h3l2-3h1v-2l5-3c1.3-2-.2-4.4,1-7,.3-.7,1.3,0,2-3h2v-1l9,2v1c2.4.6,2.2,1.1,4,2a59.4,59.4,0,0,1-3,18v4c-.4.8-1.3,0-2,3h-2c-.3,2-.7,4-1,6h1c.3,1,.7,2,1,3h5v-1c2.9-2.3.5-.9,2-4h1v-2h1v-4h1v-2h1v-7c1-3.2,2.1-5,2-10,4.7,1.4,2,3.6,7,5v2c5.1,1.4,3,4,6,6l6,1v1c5.9.1,7.5-.2,11-2,.8-4,.8-4.9,0-9C883.6,459.9,878.6,456.8,876,452Z" transform="translate(-205.5 -109)" style="fill-rule:evenodd"/><path d="M1399,401a15.5,15.5,0,0,0-1-6l-2-1c-3.3,7.1-3.8,9.1-1,17v4h1v1l4-1C1399.8,410.9,1397.7,402.7,1399,401Z" transform="translate(-205.5 -109)" style="fill-rule:evenodd"/><path d="M745,449v-4c-3.2-8.1-12.9-10.8-21-14-.1-5.3.4-7.5,4-9h5v-1h3v-1l3-1c-.1-4.6-1.3-8-5-9v-1l-5,1v1a1.7,1.7,0,0,1-2-1l-4,1c-.8-1-1.2-1-2-2h-1v-4c-.2-1.9-1-2-1-2-1.5-4.9,1.7-5.4-4-7-.9,4.6-2.1,8.2-2,14-7.2.7-10.9,2.7-16,5,0,8.2.6,7.9,3,13l13-3c.3,1,.7,2,1,3h1c-.3.7-.7,1.3-1,2h1v4a27.6,27.6,0,0,0-12,3v1h-2c-.3.7-.7,1.3-1,2h-2l-2,3h-2c-1.4,1.1-.6,2.5-3,4-.3,2-.7,4-1,6h-1v6c-.1,10.4,2.9,15.9,10,19v1l2-1v1h7c1.1-.6,1.3-3.8,2-5h1v-2l3-2v-3h1c1.4-2,1.9-2.4,2-6h2c.3-1.3.7-2.7,1-4h1c-.3-1-.7-2-1-3h1c.3-2,.7-4,1-6,5.1-.5,8.8-1.7,13,1v1l3,2c.2,7.6-1.3,10.5-6,13v5c-.2,1.4-.9-.4-1,1h1c.3,1,.7,2,1,3h7c1.1-.6,1.3-3.9,2-5l2-1c2.2-3.5,3.5-14.2,2-19Zm-33,6c-2.7,1.7-3.1,4.4-5,7h-1l-2,3h-4c.3-2.7.7-5.3,1-8a14.7,14.7,0,0,0,7-6h4Z" transform="translate(-205.5 -109)" style="fill-rule:evenodd"/><path d="M590,413V401h-1c-.3-1-.7-2-1-3l-3-1c-.9,1.1.1.2-1,1-.1,6-1.1,15,2,18,.6,2.4,1.1,2.2,2,4h4c-.3-2.3-.7-4.7-1-7Z" transform="translate(-205.5 -109)" style="fill-rule:evenodd"/><path d="M1584,441v1h-2c-.3.7-.7,1.3-1,2h-2v1h-2c-.3.7-.7,1.3-1,2h-2v1h-2v1h-3v1h-2v1h-6v-1h-4v-1l-4-1-2-3h-2l-5-9c-1.1-1.1-.4,0-1-2,2.1-1.7,2.4-3.7,4-6l3-2v-2l3-2c.3-1.3.7-2.7,1-4l2-1,2-3h1v-2c2-2.7,3.4-.9,4-6h1v-1c0-1.6-1.7-1.2-2-2s1.1-2.7,1-4h-1c-1.3-.6.4-1.2-1-1v1c-2.9,1.7-4.3,4-5,8l-4,1a8.9,8.9,0,0,1-2,4h-1v3l-6,5v2l-5,4v3l-2,1v2l-3,2v2h-1c-1.8,2.2-3.3,3.6-4,7-3.2.9-3.5,2.6-6,4,.3,2,.7,4,1,6h-1v1h-3v5c7.9,0,10.9-3.4,14-8v-2h1l2-3h2c1.4,7.5,5.6,15.5,11,19l9,3c6.4,0,9.8-1,13-4l2-3h2l3-4h2v-2c3.1-.8,3.6-2.3,7-3-.6-3.7-.6-2.3,0-6h-2c.6-2.4,1.1-2.2,2-4Z" transform="translate(-205.5 -109)" style="fill-rule:evenodd"/><path d="M1089,442c-2.6-.8-3.2-1.6-5-3v-1h-2a24.4,24.4,0,0,0-12-3v-1h-1c0-3.8.1-7.6,1-10l1-1h5v-1l5-1c.3-.7.7-1.3,1-2h5c.3-2,.7-4,1-6-2.4-.6-2.2-1-4-2v-1l-1,1c-3.9.3-11.9.9-14-1h-1v-6h-1c-.9-1.5-.9-2.4-1-5h-1c-.7,4-1.3,8-2,12h-13v1h-1v-1h-2c-1.1,1.8-3.1,3-5,4a21.1,21.1,0,0,0,0,10h6c.3.1.3,1.3,2,1v-1h12c0,3.6.2,6.8,1,9l-7,3h-3v1h-2c-.3.7-.7,1.3-1,2h-2l-6,7h-1v2h-1v7h-1c.2,6.3,2.8,8,5,12,4.9,1,8.1,2.1,15,2v-1h2c.3-.7.7-1.3,1-2h1c.3-1.7.7-3.3,1-5h1v-2h1c.3-3.7.7-7.3,1-11a9,9,0,0,0,2-2l14,2v1h1c0,3.3.1,5.8-1,8h-1c-.3,1.7-.7,3.3-1,5h-1v2h-1v3c-.5,1.3-1.3-.4-1,1h1v1h-1c.4,3.2.9,2.9,2,5h3v-1c2.9-2.3.5-.9,2-4h1v-2h1v-2h1v-3h1v-5h1v-2h1V446h-1C1089.7,444.7,1089.3,443.3,1089,442Zm-32,17a34.8,34.8,0,0,1-8,1v-4h1c1.1-4.1,4-4,6-7h5C1060.5,453.8,1058.6,455.5,1057,459Z" transform="translate(-205.5 -109)" style="fill-rule:evenodd"/><path d="M1001,401c-1.5,7.3-3.2,12.2-3,22a24.4,24.4,0,0,1,4,5h3c-.3-5.3-.7-10.7-1-16h1C1005.3,406.1,1005.8,402.1,1001,401Z" transform="translate(-205.5 -109)" style="fill-rule:evenodd"/><path d="M1485,411l-11,2a9,9,0,0,0-2-2v-4h-1c-1.1-2.9.2-3-2-5v-1c-1.8,1.9-2,8.2-3,11l-19,3c1.1,1.1,0,.4,2,1v2h-4c-.7-.3-.4-2.2-2-2v1c-3.2.4-2.9.9-5,2v5h-1v3h1c4.1,4,20.6-1.8,28-2v7h-1v1h-6v1h-2v1h-3v1h-3c-.3.7-.7,1.3-1,2l-3,2v2h-1c-2.5,4.7-1.5,9.7-1,15l8,3,2-1v1c1.1.7,3.2,2.4,5,2v-1l6-1c.3-1,.7-2,1-3h1c.3-2.3.7-4.7,1-7h1c.3-.7.7-1.3,1-2,4.1,1.1,3.9,3.1,6,6h1l3,4h7v-3h1v-3h-1c.3-1,.7-2,1-3-1.3-1.1-1-1.9-2-3l-5-4c-.3-.7-.7-1.3-1-2h-2c-.3-.7-.7-1.3-1-2l-5-3c-.3-1.7-.7-3.3-1-5h1v-6h1c2-1.9,14.2-3.4,18-4-.3-2-.7-4-1-6h1v-1h-6C1485.7,412.3,1485.3,411.7,1485,411Zm-20,36h-1c-.6,2.4-1.1,2.2-2,4-4.2.1-7.1.2-9-2s-.4,0-1-2h1v-1c3.2,1.8,6.7-1.9,12-2Z" transform="translate(-205.5 -109)" style="fill-rule:evenodd"/><path d="M644,473v-1h-4c-3.3-1.1-4.1-2.8-9-3v-3h-1c-1.4-2-4.5-5.2-2-8,.3-1,.7-2,1-3h5c.3-.7.7-1.3,1-2l6-1v-1h2c.5-.3.8-1.4,2-2,0-5.6-1.2-5.9-3-9l-14,1v-7l11-4v-2h1c-.3-1-.7-2-1-3v-3l-9-3v-5l2-1v-4h1a19.2,19.2,0,0,0-1-7h-4v1c-1.9,1.9-3.8,15-4,19-6,.2-7.4,2.1-12,3-.3,2.3-.7,4.7-1,7h1c.3,1.3.7,2.7,1,4h9v6l-3,1v-1c-3.3-.5-5.5-.5-8-1-.9,1.1.1.2-1,1v9l2,1v2c.4.6,1.3.8,2,2a34.8,34.8,0,0,0,8,1c.1,5.8.9,13.1,3,17l2,1c.3,1.3.7,2.7,1,4l2,1v2c1.1,1.4,2.5.6,4,3h5v1l9-1a24.4,24.4,0,0,1,5-4c.6-2-.1-.9,1-2,0-4.5-.7-5.5-2-8C648.9,471.1,644,473,644,473Z" transform="translate(-205.5 -109)" style="fill-rule:evenodd"/><path d="M1380,408h-1v-3h-3v-2c-3.4,3.4-1.6,11.2-1,16,1.1.9.2-.1,1,1h4c-.3-3.7-.7-7.3-1-11C1379.2,407.6,1380.1,409.4,1380,408Z" transform="translate(-205.5 -109)" style="fill-rule:evenodd"/><path d="M988,409c-.8-2.7-.2-2.3-3-3-.6,8.5-5.8,20.2,1,26v1h3c-.3-5-.7-10-1-15h1C990.3,414.7,990.4,411.1,988,409Z" transform="translate(-205.5 -109)" style="fill-rule:evenodd"/><path d="M568,409v-1h-3c-.3,3-3.9,12.9-2,17h1c1.3,1.9,1.6,1.9,2,5h4c-.2-5.6-1.6-10.4,1-13C571,412.6,570.4,410.9,568,409Z" transform="translate(-205.5 -109)" style="fill-rule:evenodd"/><path d="M1337,416a59.8,59.8,0,0,0-1,12,13.1,13.1,0,0,1,3,4h11v-1h2v-1h3c.3-.7.7-1.3,1-2l7-2v-3h-1v-2c-.4-.8-2.2-.4-2-2h1v-2l-8-1v1h-1c-.3-.7-.7-1.3-1-2s-3.8,2.2-6,1v-1C1341.4,415,1339.3,415.1,1337,416Z" transform="translate(-205.5 -109)" style="fill-rule:evenodd"/><path d="M1286,424l-3-4h-2v-1h-2v-1h-5v-1h-1v1c-3.5.8-5.4.4-8,2-.3.7-.7,1.3-1,2h-4v1l-7,6v2l-2,1c-.7,3.3-1.3,6.7-2,10h-1v9h1l3,4,6,1v1h10v-2h2c.3-2.2.1-2.6,1-4h1v-2l2-1v-2l2-1c.3-2,.7-4,1-6h1v-2c.3-.5,1.4-.9,2-2h2l3,4h1c.3,1.3.7,2.7,1,4h1c1.8,4.8-1.6,13.9-2,18h5v-1c5.5-5.6.1-30.2-4-36Zm-13,12c-2.1,1.7-2.4,3.8-4,6l-6,5-7-1v-1h-1c.6-4.1,2.1-3.5,3-7,5.8-1.6,7.2-6.4,15-7Z" transform="translate(-205.5 -109)" style="fill-rule:evenodd"/><path d="M1427,422c-.4-3.4-.7-3.7-3-5-.3,1-.7,2-1,3l-2,1v5h-1v2h-1v5h-1v2h-1c.3,1,.7,2,1,3h-1c-.3,5.3-.7,10.7-1,16h1c.3,2.3.7,4.7,1,7s.2-.1,1,1c8.7-.2,3.6-1.8,8-5-.3-1-.7-2-1-3h-1v-2h-1c-.3-2.3-.7-4.7-1-7h-1s.8-8.3,1-9h1v-6h1v-2l2-1c1-2.3-1-3.9-1-5Z" transform="translate(-205.5 -109)" style="fill-rule:evenodd"/><path d="M977,456c-4.3,1.2-4.2,4-9,5v1l-6-2c-.3-1-.7-2-1-3h-2v-2h-1c-1.2-1.6-2.4-3.7-4-5,.7-3,1.3-6,2-9h1v-2h1v-6h1V422l-2-1c-.3-1-.7-2-1-3l-18,2v1c-2.2.9-3.9,1-7,1-.9,1.1.1.2-1,1s.1.9-1,2c0,4.8.6,6.3,2,9,8.3,0,15-1.3,20-2-.3,2-.7,4-1,6h-1c-.3,3-.7,6-1,9h-1v8h1v2h1v3h1v3h1l6,7h2c.3.7.7,1.3,1,2h3v1h8v-1a7.6,7.6,0,0,0,6-6h1c.3-2.3.7-4.7,1-7l-2-1Z" transform="translate(-205.5 -109)" style="fill-rule:evenodd"/><path d="M549,466c-5.6,0-5.9-1.2-9-3-.7-4.5-1.4-6.4,0-11v-5h1v-2h1c.3-2.3.7-4.7,1-7h1v-1h-1c-.9-6.8.3-9.5-4-13v-1h-3c-.3-.7-.7-1.3-1-2l-6-1v1h-6v1h-9v1l-7,1v1l-3-1c-.9,1.1.1.2-1,1v10a20.6,20.6,0,0,1,3,3c3.6-.2,5.6-1.3,8-2h8v-1c3.3-.9,6.9.8,9-1a9.3,9.3,0,0,1,4,1c-.3,2-.7,4-1,6h-1v6h-1v6h-1v13c1.4,4.3,4.9,9.2,7,13,5.1.9,7.3.2,13,0,1.1-1.3,2.8-1.8,4-3s1.7-2.9,3-4c-.3-4.6-1.4-4.3-3-7C551.2,464.7,551.3,463.5,549,466Z" transform="translate(-205.5 -109)" style="fill-rule:evenodd"/><path d="M770,438v-2l-2-1c.3-3,.7-6,1-9h-1c-.3-1.3-.7-2.7-1-4l-5-1c0,11.7,1.6,17.3,5,25l2,1c.8-2,3.2-5.6,2-9Z" transform="translate(-205.5 -109)" style="fill-rule:evenodd"/><path d="M1107,440c-.6-3.7,3-5.5-1-9-.8-2.7-.2-2.3-3-3-.7,3.6-1.6,14.3,1,17,.2,4.3.6,3.4,2,6h2v-1h1c-.3-3.3-.7-6.7-1-10Z" transform="translate(-205.5 -109)" style="fill-rule:evenodd"/><path d="M476,462v-2h1v-1h-1c-.3-3.7-.7-7.3-1-11h-1v-2h-1v-3h-1c-1.4-5.6-17.3-16-27-13l-10,5c.3,4,.7,8,1,12h2c.7.3.5,2.3,2,2v-1c3.2-.8,6.9-3.3,12-2v1c1,.2,2-1,2-1h1v1h3v1h3c1.9.9,4.1,3,6,4-.2,5.6-1.6,7.3-3,11v4l-3,2v2c-.4.6-1.3.8-2,2h-2c-.6,2,.1.9-1,2-.1,8.6.4,5.8,4,10,5.7-.6,5.5-3.5,8-7l3-2v-2l4-3v-4h1v-2h1A2.7,2.7,0,0,0,476,462Z" transform="translate(-205.5 -109)" style="fill-rule:evenodd"/><path d="M354,470c-4.1-2.5-1.2-1.6-3-5l-2-1V449h-1v-1c-.8-5.7,4.2-6.5,0-11l-1-2c-2.8.7-2.9,1.8-5,3-.7,4.2-1.5,11.4,0,18l-1,3h1c.4,2.3-1.2,2.8-1,4h1c.3,2.3.7,4.7,1,7h1v3h1l2,6,2,1v2h1l1,3,6,2,7-5c-.3-3.3-.7-6.7-1-10C361.2,471.7,355.2,471.1,354,470Z" transform="translate(-205.5 -109)" style="fill-rule:evenodd"/><path d="M399,466c-.3-2.7-.7-5.3-1-8h-1v-2h-1v-3h-1a1.7,1.7,0,0,1,1-2l-3-10h-1c-.8-3-1.9-3.4-5-4-1.1,3.1-1.6,7.8,0,11h1v2h1v4h1v4h1v6h1v3h1v2h1v3l6,9a12.5,12.5,0,0,0,5-1c-.3-3.3-.7-6.7-1-10Z" transform="translate(-205.5 -109)" style="fill-rule:evenodd"/><path d="M1645,453c-.3-2-.7-4-1-6l-2-1c-.3-1-.7-2-1-3h-1v-1h-3v-1c-6,.2-5.5,2.7-7,7h-2v-2h-5c-1,.6-1.4,3.8-2,5-1.8,3.5-6.2,12.1-4,19,.9,2.9,3.5,4.6,5,7l11-1c.7-.3,0-1.3,3-2a8,8,0,0,1,2-4h1c.3-1,.7-2,1-3l2-1v-2l2-1v-3h1v-3h1v-1h-1c.3-1,.7-2,1-3Zm-12,11h-8c0-4.1-.2-7.2,2-9s1,1,3-2a44,44,0,0,1,9,1C1638.4,459.7,1635.2,460.2,1633,464Z" transform="translate(-205.5 -109)" style="fill-rule:evenodd"/><path d="M1349,454v-1h-5c-3.1-1.1-6.3-3.6-9-5-3.9,8.6-2.8,10.9,1,19l5,1v1h12l2-3,4-1,2-3h2v-1h2c.5-.3.8-1.4,2-2v-7h-1C1362.8,449.8,1354.9,455.7,1349,454Z" transform="translate(-205.5 -109)" style="fill-rule:evenodd"/><path d="M847,451c-.9-1.1.1-.2-1-1l-3,9-3,2c-.3,2.3-.7,4.7-1,7l-2,1a18.8,18.8,0,0,0-3,9l4-1v-4h2c.8-3.5,2.6-5.4,4-8l5-12C848,452.2,848,451.8,847,451Z" transform="translate(-205.5 -109)" style="fill-rule:evenodd"/></svg>